<svg id="SvgjsSvg1001" width="690" height="503.5" xmlns="http://www.w3.org/2000/svg" version="1.1" xmlns:xlink="http://www.w3.org/1999/xlink" xmlns:svgjs="http://svgjs.com/svgjs"><defs id="SvgjsDefs1002"><marker id="SvgjsMarker1082" markerWidth="14" markerHeight="10" refX="10" refY="5" viewBox="0 0 14 10" orient="auto" markerUnits="userSpaceOnUse" stroke-dasharray="0,0"><path id="SvgjsPath1083" d="M0,0 L14,5 L0,10 L0,0" fill="#323232" stroke="#323232" stroke-width="1"></path></marker><marker id="SvgjsMarker1086" markerWidth="14" markerHeight="10" refX="10" refY="5" viewBox="0 0 14 10" orient="auto" markerUnits="userSpaceOnUse" stroke-dasharray="0,0"><path id="SvgjsPath1087" d="M0,0 L14,5 L0,10 L0,0" fill="#323232" stroke="#323232" stroke-width="1"></path></marker><marker id="SvgjsMarker1090" markerWidth="14" markerHeight="10" refX="10" refY="5" viewBox="0 0 14 10" orient="auto" markerUnits="userSpaceOnUse" stroke-dasharray="0,0"><path id="SvgjsPath1091" d="M0,0 L14,5 L0,10 L0,0" fill="#323232" stroke="#323232" stroke-width="1"></path></marker><marker id="SvgjsMarker1094" markerWidth="14" markerHeight="10" refX="10" refY="5" viewBox="0 0 14 10" orient="auto" markerUnits="userSpaceOnUse" stroke-dasharray="0,0"><path id="SvgjsPath1095" d="M0,0 L14,5 L0,10 L0,0" fill="#323232" stroke="#323232" stroke-width="1"></path></marker><marker id="SvgjsMarker1098" markerWidth="14" markerHeight="10" refX="10" refY="5" viewBox="0 0 14 10" orient="auto" markerUnits="userSpaceOnUse" stroke-dasharray="0,0"><path id="SvgjsPath1099" d="M0,0 L14,5 L0,10 L0,0" fill="#323232" stroke="#323232" stroke-width="1"></path></marker><marker id="SvgjsMarker1102" markerWidth="14" markerHeight="10" refX="10" refY="5" viewBox="0 0 14 10" orient="auto" markerUnits="userSpaceOnUse" stroke-dasharray="0,0"><path id="SvgjsPath1103" d="M0,0 L14,5 L0,10 L0,0" fill="#323232" stroke="#323232" stroke-width="1"></path></marker><marker id="SvgjsMarker1106" markerWidth="14" markerHeight="10" refX="10" refY="5" viewBox="0 0 14 10" orient="auto" markerUnits="userSpaceOnUse" stroke-dasharray="0,0"><path id="SvgjsPath1107" d="M0,0 L14,5 L0,10 L0,0" fill="#323232" stroke="#323232" stroke-width="1"></path></marker><marker id="SvgjsMarker1110" markerWidth="14" markerHeight="10" refX="10" refY="5" viewBox="0 0 14 10" orient="auto" markerUnits="userSpaceOnUse" stroke-dasharray="0,0"><path id="SvgjsPath1111" d="M0,0 L14,5 L0,10 L0,0" fill="#323232" stroke="#323232" stroke-width="1"></path></marker><marker id="SvgjsMarker1114" markerWidth="14" markerHeight="10" refX="10" refY="5" viewBox="0 0 14 10" orient="auto" markerUnits="userSpaceOnUse" stroke-dasharray="0,0"><path id="SvgjsPath1115" d="M0,0 L14,5 L0,10 L0,0" fill="#323232" stroke="#323232" stroke-width="1"></path></marker><marker id="SvgjsMarker1118" markerWidth="14" markerHeight="10" refX="10" refY="5" viewBox="0 0 14 10" orient="auto" markerUnits="userSpaceOnUse" stroke-dasharray="0,0"><path id="SvgjsPath1119" d="M0,0 L14,5 L0,10 L0,0" fill="#323232" stroke="#323232" stroke-width="1"></path></marker><marker id="SvgjsMarker1122" markerWidth="14" markerHeight="10" refX="10" refY="5" viewBox="0 0 14 10" orient="auto" markerUnits="userSpaceOnUse" stroke-dasharray="0,0"><path id="SvgjsPath1123" d="M0,0 L14,5 L0,10 L0,0" fill="#323232" stroke="#323232" stroke-width="1"></path></marker><marker id="SvgjsMarker1132" markerWidth="14" markerHeight="10" refX="10" refY="5" viewBox="0 0 14 10" orient="auto" markerUnits="userSpaceOnUse" stroke-dasharray="0,0"><path id="SvgjsPath1133" d="M0,0 L14,5 L0,10 L0,0" fill="#323232" stroke="#323232" stroke-width="1"></path></marker><marker id="SvgjsMarker1142" markerWidth="14" markerHeight="10" refX="10" refY="5" viewBox="0 0 14 10" orient="auto" markerUnits="userSpaceOnUse" stroke-dasharray="0,0"><path id="SvgjsPath1143" d="M0,0 L14,5 L0,10 L0,0" fill="#323232" stroke="#323232" stroke-width="1"></path></marker><marker id="SvgjsMarker1146" markerWidth="14" markerHeight="10" refX="10" refY="5" viewBox="0 0 14 10" orient="auto" markerUnits="userSpaceOnUse" stroke-dasharray="0,0"><path id="SvgjsPath1147" d="M0,0 L14,5 L0,10 L0,0" fill="#323232" stroke="#323232" stroke-width="1"></path></marker><marker id="SvgjsMarker1150" markerWidth="14" markerHeight="10" refX="10" refY="5" viewBox="0 0 14 10" orient="auto" markerUnits="userSpaceOnUse" stroke-dasharray="0,0"><path id="SvgjsPath1151" d="M0,0 L14,5 L0,10 L0,0" fill="#323232" stroke="#323232" stroke-width="1"></path></marker><marker id="SvgjsMarker1154" markerWidth="14" markerHeight="10" refX="10" refY="5" viewBox="0 0 14 10" orient="auto" markerUnits="userSpaceOnUse" stroke-dasharray="0,0"><path id="SvgjsPath1155" d="M0,0 L14,5 L0,10 L0,0" fill="#323232" stroke="#323232" stroke-width="1"></path></marker><marker id="SvgjsMarker1158" markerWidth="14" markerHeight="10" refX="10" refY="5" viewBox="0 0 14 10" orient="auto" markerUnits="userSpaceOnUse" stroke-dasharray="0,0"><path id="SvgjsPath1159" d="M0,0 L14,5 L0,10 L0,0" fill="#323232" stroke="#323232" stroke-width="1"></path></marker></defs><g id="SvgjsG1008" transform="translate(25,128.5)"><path id="SvgjsPath1009" d="M 0 0L 142 0L 142 341L 0 341Z" stroke="rgba(33,41,48,1)" stroke-width="2" fill-opacity="1" fill="#ffffff"></path><g id="SvgjsG1010"><text id="SvgjsText1011" font-family="微软雅黑" text-anchor="middle" font-size="13px" width="122px" fill="#323232" font-weight="400" align="middle" lineHeight="125%" anchor="middle" family="微软雅黑" size="13px" weight="400" font-style="" opacity="1" y="159.875" transform="rotate(0)"><tspan id="SvgjsTspan1012" dy="16" x="71"><tspan id="SvgjsTspan1013" style="text-decoration:;">AudioEmailr</tspan></tspan></text></g></g><g id="SvgjsG1014" transform="translate(245,146.75)"><path id="SvgjsPath1015" d="M 0 0L 127 0L 127 27L 0 27Z" stroke="rgba(33,41,48,1)" stroke-width="2" fill-opacity="1" fill="#ffffff"></path><g id="SvgjsG1016"><text id="SvgjsText1017" font-family="微软雅黑" text-anchor="middle" font-size="13px" width="107px" fill="#323232" font-weight="400" align="middle" lineHeight="125%" anchor="middle" family="微软雅黑" size="13px" weight="400" font-style="" opacity="1" y="2.875" transform="rotate(0)"><tspan id="SvgjsTspan1018" dy="16" x="63.5"><tspan id="SvgjsTspan1019" style="text-decoration:;">Email</tspan></tspan></text></g></g><g id="SvgjsG1020" transform="translate(245,407.5)"><path id="SvgjsPath1021" d="M 0 0L 127 0L 127 27L 0 27Z" stroke="rgba(33,41,48,1)" stroke-width="2" fill-opacity="1" fill="#ffffff"></path><g id="SvgjsG1022"><text id="SvgjsText1023" font-family="微软雅黑" text-anchor="middle" font-size="13px" width="107px" fill="#323232" font-weight="400" align="middle" lineHeight="125%" anchor="middle" family="微软雅黑" size="13px" weight="400" font-style="" opacity="1" y="2.875" transform="rotate(0)"><tspan id="SvgjsTspan1024" dy="16" x="63.5"><tspan id="SvgjsTspan1025" style="text-decoration:;">TTS</tspan></tspan></text></g></g><g id="SvgjsG1026" transform="translate(473,185)"><path id="SvgjsPath1027" d="M 0 0L 192 0L 192 26.5L 0 26.5Z" stroke="rgba(33,41,48,1)" stroke-width="2" fill-opacity="1" fill="#ffffff"></path><g id="SvgjsG1028"><text id="SvgjsText1029" font-family="微软雅黑" text-anchor="middle" font-size="13px" width="172px" fill="#323232" font-weight="400" align="middle" lineHeight="125%" anchor="middle" family="微软雅黑" size="13px" weight="400" font-style="" opacity="1" y="2.625" transform="rotate(0)"><tspan id="SvgjsTspan1030" dy="16" x="96"><tspan id="SvgjsTspan1031" style="text-decoration:;">Send</tspan></tspan></text></g></g><g id="SvgjsG1032" transform="translate(473,148)"><path id="SvgjsPath1033" d="M 0 0L 192 0L 192 26.5L 0 26.5Z" stroke="rgba(33,41,48,1)" stroke-width="2" fill-opacity="1" fill="#ffffff"></path><g id="SvgjsG1034"><text id="SvgjsText1035" font-family="微软雅黑" text-anchor="middle" font-size="13px" width="172px" fill="#323232" font-weight="400" align="middle" lineHeight="125%" anchor="middle" family="微软雅黑" size="13px" weight="400" font-style="" opacity="1" y="2.625" transform="rotate(0)"><tspan id="SvgjsTspan1036" dy="16" x="96"><tspan id="SvgjsTspan1037" style="text-decoration:;">Inbox</tspan></tspan></text></g></g><g id="SvgjsG1038" transform="translate(473,107)"><path id="SvgjsPath1039" d="M 0 0L 192 0L 192 26.5L 0 26.5Z" stroke="rgba(33,41,48,1)" stroke-width="2" fill-opacity="1" fill="#ffffff"></path><g id="SvgjsG1040"><text id="SvgjsText1041" font-family="微软雅黑" text-anchor="middle" font-size="13px" width="172px" fill="#323232" font-weight="400" align="middle" lineHeight="125%" anchor="middle" family="微软雅黑" size="13px" weight="400" font-style="" opacity="1" y="2.625" transform="rotate(0)"><tspan id="SvgjsTspan1042" dy="16" x="96"><tspan id="SvgjsTspan1043" style="text-decoration:;">Login</tspan></tspan></text></g></g><g id="SvgjsG1044" transform="translate(245,272)"><path id="SvgjsPath1045" d="M 0 0L 127 0L 127 27L 0 27Z" stroke="rgba(33,41,48,1)" stroke-width="2" fill-opacity="1" fill="#ffffff"></path><g id="SvgjsG1046"><text id="SvgjsText1047" font-family="微软雅黑" text-anchor="middle" font-size="13px" width="107px" fill="#323232" font-weight="400" align="middle" lineHeight="125%" anchor="middle" family="微软雅黑" size="13px" weight="400" font-style="" opacity="1" y="2.875" transform="rotate(0)"><tspan id="SvgjsTspan1048" dy="16" x="63.5"><tspan id="SvgjsTspan1049" style="text-decoration:;">Communication</tspan></tspan></text></g></g><g id="SvgjsG1050" transform="translate(474,245)"><path id="SvgjsPath1051" d="M 0 0L 190 0L 190 27L 0 27Z" stroke="rgba(33,41,48,1)" stroke-width="2" fill-opacity="1" fill="#ffffff"></path><g id="SvgjsG1052"><text id="SvgjsText1053" font-family="微软雅黑" text-anchor="middle" font-size="13px" width="170px" fill="#323232" font-weight="400" align="middle" lineHeight="125%" anchor="middle" family="微软雅黑" size="13px" weight="400" font-style="" opacity="1" y="2.875" transform="rotate(0)"><tspan id="SvgjsTspan1054" dy="16" x="95"><tspan id="SvgjsTspan1055" style="text-decoration:;">Java</tspan></tspan></text></g></g><g id="SvgjsG1056" transform="translate(474,300)"><path id="SvgjsPath1057" d="M 0 0L 190 0L 190 27L 0 27Z" stroke="rgba(33,41,48,1)" stroke-width="2" fill-opacity="1" fill="#ffffff"></path><g id="SvgjsG1058"><text id="SvgjsText1059" font-family="微软雅黑" text-anchor="middle" font-size="13px" width="170px" fill="#323232" font-weight="400" align="middle" lineHeight="125%" anchor="middle" family="微软雅黑" size="13px" weight="400" font-style="" opacity="1" y="2.875" transform="rotate(0)"><tspan id="SvgjsTspan1060" dy="16" x="95"><tspan id="SvgjsTspan1061" style="text-decoration:;">Python</tspan></tspan></text></g></g><g id="SvgjsG1062" transform="translate(474,363.5)"><path id="SvgjsPath1063" d="M 0 0L 190 0L 190 27L 0 27Z" stroke="rgba(33,41,48,1)" stroke-width="2" fill-opacity="1" fill="#ffffff"></path><g id="SvgjsG1064"><text id="SvgjsText1065" font-family="微软雅黑" text-anchor="middle" font-size="13px" width="170px" fill="#323232" font-weight="400" align="middle" lineHeight="125%" anchor="middle" family="微软雅黑" size="13px" weight="400" font-style="" opacity="1" y="2.875" transform="rotate(0)"><tspan id="SvgjsTspan1066" dy="16" x="95"><tspan id="SvgjsTspan1067" style="text-decoration:;">Collect Data</tspan></tspan></text></g></g><g id="SvgjsG1068" transform="translate(474,407.5)"><path id="SvgjsPath1069" d="M 0 0L 190 0L 190 27L 0 27Z" stroke="rgba(33,41,48,1)" stroke-width="2" fill-opacity="1" fill="#ffffff"></path><g id="SvgjsG1070"><text id="SvgjsText1071" font-family="微软雅黑" text-anchor="middle" font-size="13px" width="170px" fill="#323232" font-weight="400" align="middle" lineHeight="125%" anchor="middle" family="微软雅黑" size="13px" weight="400" font-style="" opacity="1" y="2.875" transform="rotate(0)"><tspan id="SvgjsTspan1072" dy="16" x="95"><tspan id="SvgjsTspan1073" style="text-decoration:;">Train Model</tspan></tspan></text></g></g><g id="SvgjsG1074" transform="translate(474,451.5)"><path id="SvgjsPath1075" d="M 0 0L 190 0L 190 27L 0 27Z" stroke="rgba(33,41,48,1)" stroke-width="2" fill-opacity="1" fill="#ffffff"></path><g id="SvgjsG1076"><text id="SvgjsText1077" font-family="微软雅黑" text-anchor="middle" font-size="13px" width="170px" fill="#323232" font-weight="400" align="middle" lineHeight="125%" anchor="middle" family="微软雅黑" size="13px" weight="400" font-style="" opacity="1" y="2.875" transform="rotate(0)"><tspan id="SvgjsTspan1078" dy="16" x="95"><tspan id="SvgjsTspan1079" style="text-decoration:;">Multi Voice</tspan></tspan></text></g></g><g id="SvgjsG1080"><path id="SvgjsPath1081" d="M168 287.71254355400697L206 287.71254355400697L206 289.5L241.39999999999998 289.5" stroke="#323232" stroke-width="2" fill="none" marker-end="url(#SvgjsMarker1082)"></path></g><g id="SvgjsG1084"><path id="SvgjsPath1085" d="M166 445.7369337979094L205 445.7369337979094L205 422.5L241.39999999999998 422.5" stroke="#323232" stroke-width="2" fill="none" marker-end="url(#SvgjsMarker1086)"></path></g><g id="SvgjsG1088"><path id="SvgjsPath1089" d="M373 160.25L422.5 160.25L422.5 120.25L469.4 120.25" stroke="#323232" stroke-width="2" fill="none" marker-end="url(#SvgjsMarker1090)"></path></g><g id="SvgjsG1092"><path id="SvgjsPath1093" d="M373 160.25L422.5 160.25L422.5 161.25L469.4 161.25" stroke="#323232" stroke-width="2" fill="none" marker-end="url(#SvgjsMarker1094)"></path></g><g id="SvgjsG1096"><path id="SvgjsPath1097" d="M373 160.25L422.5 160.25L422.5 198.25L469.4 198.25" stroke="#323232" stroke-width="2" fill="none" marker-end="url(#SvgjsMarker1098)"></path></g><g id="SvgjsG1100"><path id="SvgjsPath1101" d="M373 285.5L423 285.5L423 258.5L470.4 258.5" stroke="#323232" stroke-width="2" fill="none" marker-end="url(#SvgjsMarker1102)"></path></g><g id="SvgjsG1104"><path id="SvgjsPath1105" d="M373 285.5L423 285.5L423 313.5L470.4 313.5" stroke="#323232" stroke-width="2" fill="none" marker-end="url(#SvgjsMarker1106)"></path></g><g id="SvgjsG1108"><path id="SvgjsPath1109" d="M373 421L423 421L423 377L470.4 377" stroke="#323232" stroke-width="2" fill="none" marker-end="url(#SvgjsMarker1110)"></path></g><g id="SvgjsG1112"><path id="SvgjsPath1113" d="M373 421L423 421L423 421L470.4 421" stroke="#323232" stroke-width="2" fill="none" marker-end="url(#SvgjsMarker1114)"></path></g><g id="SvgjsG1116"><path id="SvgjsPath1117" d="M373 421L423 421L423 465L470.4 465" stroke="#323232" stroke-width="2" fill="none" marker-end="url(#SvgjsMarker1118)"></path></g><g id="SvgjsG1120"><path id="SvgjsPath1121" d="M168 137.5L206 137.5L206 160.25L241.39999999999998 160.25" stroke="#323232" stroke-width="2" fill="none" marker-end="url(#SvgjsMarker1122)"></path></g><g id="SvgjsG1124" transform="translate(473,66)"><path id="SvgjsPath1125" d="M 0 0L 192 0L 192 26.5L 0 26.5Z" stroke="rgba(33,41,48,1)" stroke-width="2" fill-opacity="1" fill="#ffffff"></path><g id="SvgjsG1126"><text id="SvgjsText1127" font-family="微软雅黑" text-anchor="middle" font-size="13px" width="172px" fill="#323232" font-weight="400" align="middle" lineHeight="125%" anchor="middle" family="微软雅黑" size="13px" weight="400" font-style="" opacity="1" y="2.625" transform="rotate(0)"><tspan id="SvgjsTspan1128" dy="16" x="96"><tspan id="SvgjsTspan1129" style="text-decoration:;">Reading Status</tspan></tspan></text></g></g><g id="SvgjsG1130"><path id="SvgjsPath1131" d="M373 160.25L422.5 160.25L422.5 79.25L469.4 79.25" stroke="#323232" stroke-width="2" fill="none" marker-end="url(#SvgjsMarker1132)"></path></g><g id="SvgjsG1134" transform="translate(473,25)"><path id="SvgjsPath1135" d="M 0 0L 192 0L 192 26.5L 0 26.5Z" stroke="rgba(33,41,48,1)" stroke-width="2" fill-opacity="1" fill="#ffffff"></path><g id="SvgjsG1136"><text id="SvgjsText1137" font-family="微软雅黑" text-anchor="middle" font-size="13px" width="172px" fill="#323232" font-weight="400" align="middle" lineHeight="125%" anchor="middle" family="微软雅黑" size="13px" weight="400" font-style="" opacity="1" y="2.625" transform="rotate(0)"><tspan id="SvgjsTspan1138" dy="16" x="96"><tspan id="SvgjsTspan1139" style="text-decoration:;">Email Type(work/personal)</tspan></tspan></text></g></g><g id="SvgjsG1140"><path id="SvgjsPath1141" d="M373 160.25L422.5 160.25L422.5 38.25L469.4 38.25" stroke="#323232" stroke-width="2" fill="none" marker-end="url(#SvgjsMarker1142)"></path></g><g id="SvgjsG1144"><path id="SvgjsPath1145" d="M277 174.5L277 216.5L277 216.5L277 259.5" stroke="#323232" stroke-width="2" fill="none" marker-end="url(#SvgjsMarker1146)"></path></g><g id="SvgjsG1148"><path id="SvgjsPath1149" d="M279 299.5L279 347.5L279 347.5L279 396.5" stroke="#323232" stroke-width="2" fill="none" marker-end="url(#SvgjsMarker1150)"></path></g><g id="SvgjsG1152"><path id="SvgjsPath1153" d="M335 406.5L335 360L335 360L335 312.5" stroke="#323232" stroke-width="2" fill="none" marker-end="url(#SvgjsMarker1154)"></path></g><g id="SvgjsG1156"><path id="SvgjsPath1157" d="M333 271.5L333 228.75L333 228.75L333 185" stroke="#323232" stroke-width="2" fill="none" marker-end="url(#SvgjsMarker1158)"></path></g><g id="SvgjsG1160" transform="translate(253,211.5)"><path id="SvgjsPath1161" d="M 0 0L 100 0L 100 40L 0 40Z" stroke="none" fill="none"></path><g id="SvgjsG1162"><text id="SvgjsText1163" font-family="微软雅黑" text-anchor="middle" font-size="13px" width="100px" fill="#323232" font-weight="400" align="middle" lineHeight="125%" anchor="middle" family="微软雅黑" size="13px" weight="400" font-style="" opacity="1" y="9.375" transform="rotate(0)"><tspan id="SvgjsTspan1164" dy="16" x="50"><tspan id="SvgjsTspan1165" style="text-decoration:;">Http Request</tspan></tspan></text></g></g><g id="SvgjsG1166" transform="translate(253,333.25)"><path id="SvgjsPath1167" d="M 0 0L 100 0L 100 40L 0 40Z" stroke="none" fill="none"></path><g id="SvgjsG1168"><text id="SvgjsText1169" font-family="微软雅黑" text-anchor="middle" font-size="13px" width="100px" fill="#323232" font-weight="400" align="middle" lineHeight="125%" anchor="middle" family="微软雅黑" size="13px" weight="400" font-style="" opacity="1" y="9.375" transform="rotate(0)"><tspan id="SvgjsTspan1170" dy="16" x="50"><tspan id="SvgjsTspan1171" style="text-decoration:;">Http Request</tspan></tspan></text></g></g></svg>